<svg width="74" height="74" viewBox="0 0 74 74" fill="none" xmlns="http://www.w3.org/2000/svg">
<g filter="url(#filter0_d_4095_26)">
<circle cx="37" cy="33" r="33" fill="#072B31"/>
</g>
<path d="M56.793 32.9966C56.7469 32.6681 56.6086 32.3496 56.3597 32.0859C55.6768 31.3623 54.3549 31.1729 53.2984 31.2048C51.6543 31.2545 50.0256 31.5255 48.508 32.0497C47.4886 32.4019 44.8695 33.3775 46.9377 34.3038C48.8197 35.1466 51.1851 35.6132 53.345 35.612C54.1982 35.6114 55.2454 35.4913 55.9222 35.0339C56.5454 34.6126 56.8104 33.9595 56.8137 33.3161C56.8143 33.2092 56.8081 33.1026 56.7932 32.9966" fill="#38F2AB"/>
<path d="M26.3057 32.0497C24.7881 31.5255 23.1591 31.2545 21.5151 31.2048C20.4585 31.1729 19.1368 31.3623 18.4539 32.0859C18.2051 32.3494 18.0668 32.6681 18.0204 32.9966C18.0055 33.1026 17.9996 33.2094 18 33.3161C18.0035 33.9595 18.2682 34.6126 18.8917 35.0339C19.5685 35.4913 20.6154 35.6116 21.4687 35.612C23.6286 35.6132 25.994 35.1466 27.8762 34.3038C29.9442 33.3775 27.3251 32.4019 26.3059 32.0497" fill="#38F2AB"/>
<path d="M38.7637 44.5076C38.4117 43.4885 37.4359 40.8694 36.5096 42.9375C35.667 44.8194 35.2002 47.1849 35.2014 49.3448C35.202 50.1981 35.3221 51.245 35.7795 51.9218C36.2008 52.5453 36.8539 52.8102 37.4973 52.8135C37.604 52.8141 37.7106 52.808 37.8168 52.7931C38.1453 52.7467 38.464 52.6084 38.7275 52.3598C39.4511 51.6767 39.6405 50.355 39.6086 49.2984C39.5592 47.6544 39.2881 46.0254 38.7637 44.5078" fill="#38F2AB"/>
<path d="M37.8168 14.0204C37.7108 14.0055 37.604 13.9996 37.4973 14C36.8539 14.0033 36.2008 14.2682 35.7795 14.8917C35.3221 15.5685 35.2018 16.6154 35.2014 17.4687C35.2002 19.6286 35.6668 21.994 36.5096 23.876C37.4359 25.944 38.4115 23.3249 38.7637 22.3057C39.2879 20.7883 39.5592 19.1594 39.6086 17.5153C39.6405 16.4588 39.4511 15.1368 38.7275 14.4539C38.464 14.2053 38.1453 14.0668 37.8168 14.0207" fill="#38F2AB"/>
<path d="M50.2009 43.0866C49.0034 41.9592 47.6599 40.9991 46.216 40.2968C45.2463 39.8251 42.7042 38.6629 43.5117 40.7803C44.2465 42.7071 45.5891 44.7094 47.1173 46.236C47.721 46.8391 48.5465 47.4944 49.3485 47.6495C50.087 47.7925 50.7362 47.5181 51.1935 47.0652C51.2693 46.9902 51.3408 46.9104 51.405 46.8248C51.6044 46.5596 51.732 46.2367 51.7427 45.8745C51.7715 44.8798 50.9707 43.8114 50.2009 43.0868" fill="#38F2AB"/>
<path d="M27.7269 20.6126C27.0021 19.8429 25.9335 19.0423 24.9392 19.0711C24.577 19.0815 24.2539 19.209 23.9889 19.4086C23.9033 19.4729 23.8237 19.5442 23.7485 19.62C23.296 20.0774 23.0212 20.7264 23.1642 21.4651C23.3193 22.2671 23.9746 23.0926 24.5777 23.6962C26.104 25.2245 28.1064 26.567 30.0334 27.3018C32.1506 28.1093 30.9886 25.5673 30.5169 24.5977C29.8146 23.1539 28.8543 21.8101 27.7271 20.6126" fill="#38F2AB"/>
<path d="M30.0331 39.5117C28.1064 40.2465 26.104 41.5891 24.5774 43.1173C23.9744 43.7209 23.319 44.5464 23.1638 45.3484C23.0208 46.0869 23.2953 46.7361 23.748 47.1935C23.823 47.2693 23.9026 47.3406 23.9884 47.405C24.2534 47.6043 24.5766 47.732 24.9388 47.7424C25.9332 47.7712 27.0018 46.9706 27.7264 46.2009C28.8538 45.0034 29.8139 43.6599 30.5163 42.216C30.9879 41.2463 32.1499 38.7042 30.0327 39.5117" fill="#38F2AB"/>
<path d="M46.216 26.5166C47.6598 25.8142 49.0034 24.8539 50.2009 23.7267C50.9708 23.0021 51.7714 21.9335 51.7426 20.9391C51.7322 20.5769 51.6047 20.2537 51.4051 19.9887C51.3408 19.9031 51.2695 19.8235 51.1935 19.7483C50.7363 19.2958 50.0871 19.0213 49.3484 19.1641C48.5464 19.3191 47.7209 19.9744 47.1172 20.5775C45.5892 22.1039 44.2467 24.1062 43.5117 26.0332C42.7044 28.1506 45.2464 26.9886 46.216 26.5168" fill="#38F2AB"/>
<defs>
<filter id="filter0_d_4095_26" x="0" y="0" width="74" height="74" filterUnits="userSpaceOnUse" color-interpolation-filters="sRGB">
<feFlood flood-opacity="0" result="BackgroundImageFix"/>
<feColorMatrix in="SourceAlpha" type="matrix" values="0 0 0 0 0 0 0 0 0 0 0 0 0 0 0 0 0 0 127 0" result="hardAlpha"/>
<feOffset dy="4"/>
<feGaussianBlur stdDeviation="2"/>
<feComposite in2="hardAlpha" operator="out"/>
<feColorMatrix type="matrix" values="0 0 0 0 0 0 0 0 0 0 0 0 0 0 0 0 0 0 0.25 0"/>
<feBlend mode="normal" in2="BackgroundImageFix" result="effect1_dropShadow_4095_26"/>
<feBlend mode="normal" in="SourceGraphic" in2="effect1_dropShadow_4095_26" result="shape"/>
</filter>
</defs>
</svg>
