<svg width="478" height="128" viewBox="0 0 478 128" fill="none" xmlns="http://www.w3.org/2000/svg">
<path d="M204.805 51.9933H155.956C154.784 51.9933 153.833 52.8939 153.833 54.0057V125.985C153.833 127.097 154.784 127.997 155.956 127.997H204.805C205.98 127.997 206.931 127.097 206.931 125.985V54.0057C206.931 52.8939 205.98 51.9933 204.805 51.9933Z" fill="#38F2AB"/>
<path d="M151.305 21.5212C151.305 21.5539 151.305 21.5866 151.305 21.6193C151.305 21.652 151.305 21.6822 151.305 21.7149C151.289 50.64 209.459 49.9508 209.459 21.7149C209.459 21.6847 209.459 21.652 209.457 21.6193C209.457 21.5866 209.459 21.5564 209.459 21.5212C209.465 -7.13474 151.305 -7.21272 151.305 21.5212Z" fill="#38F2AB"/>
<path d="M473.348 51.6311H424.502C423.327 51.6311 422.376 52.5316 422.376 53.6434V125.988C422.376 127.097 423.327 128 424.502 128H473.348C474.523 128 475.474 127.099 475.474 125.988V53.6434C475.474 52.5341 474.523 51.6311 473.348 51.6311Z" fill="#38F2AB"/>
<path d="M478 21.5212C478.005 -7.13473 419.845 -7.21272 419.845 21.5212C419.845 21.5539 419.845 21.5866 419.845 21.6193C419.845 21.652 419.845 21.6847 419.845 21.7174C419.832 50.6425 478 49.9533 478 21.7174C478 21.6872 478 21.6545 477.997 21.6218C477.997 21.5891 478 21.5589 478 21.5237" fill="#38F2AB"/>
<path d="M399.162 1.69698H358.696C357.521 1.69698 356.57 2.59751 356.57 3.70934V36.3623C356.57 55.2357 350.955 62.4475 342.519 64.6737C341.845 64.8523 341.181 64.3618 341.181 63.7002V3.70934C341.181 2.59751 340.23 1.69698 339.055 1.69698H298.629C297.454 1.69698 296.506 2.59751 296.506 3.70934V36.2265C296.506 55.0999 290.89 62.3117 282.452 64.5378C281.781 64.7164 281.114 64.2259 281.114 63.5644V3.70934C281.114 2.59751 280.163 1.69698 278.991 1.69698H230.142C228.969 1.69698 228.018 2.59751 228.018 3.70934V125.985C228.018 127.097 228.969 127.997 230.142 127.997H263.753C269.37 127.997 274.82 127.074 279.954 125.376C296.118 120.207 308.778 107.834 313.691 92.2933C314.468 90.0897 315.032 87.8032 315.588 85.494C315.812 84.5708 317.168 84.6262 317.168 85.5946V125.985C317.168 127.097 318.116 127.997 319.291 127.997H348.399C377.607 127.997 401.286 105.57 401.286 77.9024V3.70934C401.286 2.59751 400.335 1.69698 399.16 1.69698" fill="#38F2AB"/>
<path d="M53.3926 127.998V79.8922C53.3926 79.2331 54.0492 78.7552 54.7259 78.9136C69.481 82.3749 79.4838 94.1673 79.9266 125.776C79.9442 127.006 81.0058 127.995 82.304 127.995H53.3926V127.998ZM66.6684 64.8473C103.067 64.8473 132.65 37.2176 133.324 2.89434C133.337 2.23529 132.768 1.69698 132.074 1.69698H106.493C97.0213 1.69698 89.8186 3.73701 82.8625 7.31146C68.2357 14.4931 57.8354 28.0186 55.1033 43.9716C55.0203 44.3766 54.9649 44.8243 54.8769 45.2897C54.6832 46.2908 53.3875 46.1022 53.4026 45.1765L53.3951 2.87673C53.3951 2.22523 52.8366 1.69447 52.1472 1.69447H1.24783C0.558505 1.69447 0 2.22271 0 2.87673V126.815C0 127.467 0.558505 127.995 1.24783 127.995H132.074C132.768 127.995 133.337 127.457 133.324 126.798C132.65 92.4719 103.064 64.8447 66.6684 64.8447" fill="#38F2AB"/>
</svg>
